/* XPM */
static char * close_pressed_xpm[] = {
"11 18 2 1",
" 	c #2d2d2d",
".	c #646663",
"           ",
"           ",
"           ",
"           ",
"           ",
"           ",
"   .   .   ",
"    . .    ",
"     .     ",
"    . .    ",
"   .   .   ",
"           ",
"           ",
"           ",
"           ",
"           ",
"           ",
"           "};
