/* XPM */
static char * maximize_active_xpm[] = {
"11 18 2 1",
" 	c #2d2d2d",
".	c #eeeeee",
"           ",
"           ",
"           ",
"           ",
"           ",
"           ",
"   .....   ",
"   .....   ",
"   .   .   ",
"   .   .   ",
"   .....   ",
"           ",
"           ",
"           ",
"           ",
"           ",
"           ",
"           "};
